<svg xmlns="http://www.w3.org/2000/svg" xmlns:xlink="http://www.w3.org/1999/xlink" xml:space="preserve" id="svg235" version="1.1" viewBox="0 0 977.09998 977.09998">
  <style id="style_common">
    .trees { fill:#144043 }
    .cement { fill:#c6c2c2 }
    .land { fill:#1f5054 }
    .rock { fill:#dcd5b6 }
    .water { fill:#4a6b96 }
    .wood { fill:#593700 }
    .tarmac { fill:#768089 }
    .gravel { fill:#946d3e }
    .building { fill:#1a2632 }
    .floor { fill:#70777f }
    .locked { fill:#37414c }
    .map_border { fill:none;stroke:#000;stroke-width:2 }
    .fence { fill:none;stroke:#c4e3c3;stroke-width:1 }
    .road_tarmac { fill:none;stroke:#888 }
    .road_gravel { fill:none;stroke:#946d3e }
    .road_small { stroke-width:5 }
    .road_medium { stroke-width:8 }
    .road_large { stroke-width:12 }
    .railroad { fill:none;stroke:#914833;stroke-dasharray:6;stroke-width:3 }
    .powerline { fill:none;stroke:#ffce00;stroke-width:2;stroke-miterlimit:10;stroke-dasharray:6,6 }
    .danger { fill:red;fill-opacity:.4;stroke:red;stroke-dasharray:4,2;stroke-width:2 }
    .task { fill:#000 }
    .stairs { fill:#FFD700 }
    .shadow { filter:drop-shadow(0 0 2px #000) }
  </style>
  <style id="style_interchange">
    .structure{ fill:#4b4b4b }
  </style>
  <defs id="defs1">
    <linearGradient id="rampDown_l2r">
      <stop id="stop200" offset="0" style="stop-color:#777777;stop-opacity:0;"></stop>
      <stop id="stop199" offset="1" style="stop-color:#000000;stop-opacity:0.5;"></stop>
    </linearGradient>
    <linearGradient id="rampDown_r2l">
      <stop id="stop84" offset="0" style="stop-color:#000000;stop-opacity:0.5;"></stop>
      <stop id="stop85" offset="1" style="stop-color:#777777;stop-opacity:0;"></stop>
    </linearGradient>
    <linearGradient id="rampUp_l2r">
      <stop id="stop168" offset="0" style="stop-color:#ffffff;stop-opacity:0;"></stop>
      <stop id="stop169" offset="1" style="stop-color:#ffffff;stop-opacity:0.5;"></stop>
    </linearGradient>
    <linearGradient id="rampUp_r2l">
      <stop id="stop176" offset="0" style="stop-color:#ffffff;stop-opacity:0.5;"></stop>
      <stop id="stop175" offset="1" style="stop-color:#ffffff;stop-opacity:0;"></stop>
    </linearGradient>
    <linearGradient xlink:href="#rampDown_l2r" id="linearGradient199" x1="559.72021" x2="580.3277" y1="616.02795" y2="616.02795" gradientUnits="userSpaceOnUse"></linearGradient>
    <linearGradient xlink:href="#rampDown_l2r" id="linearGradient204" x1="615.41016" x2="636.92401" y1="475.4502" y2="475.4502" gradientUnits="userSpaceOnUse"></linearGradient>
    <linearGradient xlink:href="#rampDown_l2r" id="linearGradient208" x1="559.91833" x2="580.39166" y1="335.18094" y2="335.18094" gradientUnits="userSpaceOnUse"></linearGradient>
    <linearGradient xlink:href="#rampDown_l2r" id="linearGradient244" x1="654.29987" x2="666.34497" y1="622.46558" y2="622.46558" gradientUnits="userSpaceOnUse"></linearGradient>
    <linearGradient xlink:href="#rampDown_r2l" id="linearGradient178" x1="534.58289" x2="551.11755" y1="475.25916" y2="475.25916" gradientUnits="userSpaceOnUse"></linearGradient>
    <linearGradient xlink:href="#rampDown_r2l" id="linearGradient183" x1="562.59283" x2="578.76257" y1="648.22321" y2="648.22321" gradientUnits="userSpaceOnUse"></linearGradient>
    <linearGradient xlink:href="#rampDown_r2l" id="linearGradient185" x1="689.42633" x2="716.38831" y1="638.20557" y2="638.20557" gradientUnits="userSpaceOnUse"></linearGradient>
    <linearGradient xlink:href="#rampDown_r2l" id="linearGradient190" x1="653.56561" x2="665.01868" y1="326.37051" y2="326.37051" gradientUnits="userSpaceOnUse"></linearGradient>
    <linearGradient xlink:href="#rampDown_r2l" id="linearGradient192" x1="563.65216" x2="577.10272" y1="216.61259" y2="216.61259" gradientUnits="userSpaceOnUse"></linearGradient>
    <linearGradient xlink:href="#rampDown_r2l" id="linearGradient194" x1="547.94702" x2="578.65472" y1="313.95453" y2="313.95453" gradientUnits="userSpaceOnUse"></linearGradient>
    <linearGradient xlink:href="#rampDown_r2l" id="linearGradient202" x1="675.54742" x2="697.62073" y1="475.55551" y2="475.55551" gradientUnits="userSpaceOnUse"></linearGradient>
    <linearGradient xlink:href="#rampDown_r2l" id="linearGradient206" x1="575.14801" x2="596.96887" y1="475.6763" y2="475.6763" gradientUnits="userSpaceOnUse"></linearGradient>
    <linearGradient xlink:href="#rampDown_r2l" id="linearGradient240" x1="887.88232" x2="887.88232" y1="481.81339" y2="469.19424" gradientUnits="userSpaceOnUse"></linearGradient>
    <linearGradient xlink:href="#rampDown_r2l" id="linearGradient84" x1="655.97345" x2="655.97345" y1="565.0498" y2="554.98608" gradientUnits="userSpaceOnUse"></linearGradient>
    <linearGradient xlink:href="#rampUp_l2r" id="linearGradient169" x1="674.61407" x2="687.49237" y1="475.59064" y2="475.59064" gradientUnits="userSpaceOnUse"></linearGradient>
    <linearGradient xlink:href="#rampUp_l2r" id="linearGradient175" x1="574.55939" x2="586.74683" y1="475.59064" y2="475.59064" gradientUnits="userSpaceOnUse"></linearGradient>
    <linearGradient xlink:href="#rampUp_l2r" id="linearGradient229" x1="566.33783" x2="574.46753" y1="216.59996" y2="216.59996" gradientUnits="userSpaceOnUse"></linearGradient>
    <linearGradient xlink:href="#rampUp_l2r" id="linearGradient231" x1="547.76813" x2="566.72144" y1="314.01965" y2="314.01965" gradientUnits="userSpaceOnUse"></linearGradient>
    <linearGradient xlink:href="#rampUp_l2r" id="linearGradient233" x1="534.90833" x2="545.61707" y1="475.27277" y2="475.27277" gradientUnits="userSpaceOnUse"></linearGradient>
    <linearGradient xlink:href="#rampUp_l2r" id="linearGradient235" x1="563.2301" x2="574.45557" y1="648.18005" y2="648.18005" gradientUnits="userSpaceOnUse"></linearGradient>
    <linearGradient xlink:href="#rampUp_l2r" id="linearGradient237" x1="652.07996" x2="652.07996" y1="570.19727" y2="552.70618" gradientUnits="userSpaceOnUse"></linearGradient>
    <linearGradient xlink:href="#rampUp_l2r" id="linearGradient239" x1="688.47986" x2="705.50806" y1="638.04413" y2="638.04413" gradientUnits="userSpaceOnUse"></linearGradient>
    <linearGradient xlink:href="#rampUp_r2l" id="linearGradient173" x1="624.84644" x2="637.6651" y1="475.40985" y2="475.40985" gradientUnits="userSpaceOnUse"></linearGradient>
    <linearGradient xlink:href="#rampUp_r2l" id="linearGradient180" x1="569.98462" x2="582.73511" y1="615.86151" y2="615.86151" gradientUnits="userSpaceOnUse"></linearGradient>
    <linearGradient xlink:href="#rampUp_r2l" id="linearGradient187" x1="569.39502" x2="583.13763" y1="335.23236" y2="335.23236" gradientUnits="userSpaceOnUse"></linearGradient>
    <linearGradient xlink:href="#rampUp_r2l" id="linearGradient219" x1="887.76825" x2="887.76825" y1="481.87787" y2="469.13779" gradientUnits="userSpaceOnUse"></linearGradient>
    <linearGradient xlink:href="#rampUp_r2l" id="linearGradient221" x1="882.4549" x2="882.4549" y1="298.95959" y2="261.57394" gradientUnits="userSpaceOnUse"></linearGradient>
    <linearGradient xlink:href="#rampUp_r2l" id="linearGradient223" x1="848.27881" x2="886.75024" y1="182.32352" y2="182.32352" gradientUnits="userSpaceOnUse"></linearGradient>
    <linearGradient xlink:href="#rampUp_r2l" id="linearGradient225" x1="882.44916" x2="882.44916" y1="650.49103" y2="691.24506" gradientUnits="userSpaceOnUse"></linearGradient>
    <linearGradient xlink:href="#rampUp_r2l" id="linearGradient227" x1="848.47076" x2="886.86646" y1="767.81689" y2="767.81689" gradientUnits="userSpaceOnUse"></linearGradient>
    <linearGradient xlink:href="#rampUp_r2l" id="linearGradient242" x1="660.83087" x2="668.61353" y1="326.46893" y2="326.46893" gradientUnits="userSpaceOnUse"></linearGradient>
    <linearGradient xlink:href="#rampUp_r2l" id="linearGradient246" x1="660.5708" x2="669.35779" y1="622.61993" y2="622.61993" gradientUnits="userSpaceOnUse"></linearGradient>
  </defs>
  
  <g id="First_Floor" data-name="First Floor">
    <g id="Structure-1" class="shadow building" data-name="Structure">
      <path d="M609.974 139.454v10.948H478.506v136.724h-7.951v272.502h7.927v134.083h131.534v12.817h143.38936V579.3058H791.168l4.791-20.5738V285.9l-4.791-19.21578h-37.824V139.454Z"></path>
    </g>
    <g id="Pavament-1" class="cement">
      <path d="M778.51562 559.30276h-54.82031v134.48047H611.26562v11.49414h140.8891v-16.28829h1.25064v-11.787h-1.25064v-99.1468h26.52909v1.25052h11.48807v-1.25052l4.5371-19.96384V449.49222h-16.19336z"></path>
      <path d="M611.22461 150.71875H723.8457v136.19336h54.66992v109.99414h16.19336V286.06641l-4.50781-18.13253v-1.24966h-11.50243v1.24966h-26.60499v-98.99664h1.25025v-12.04788h-1.25025v-16.18624H611.22461Z"></path>
    </g>
    <g id="Floor-1" class="floor">
      <path d="M708.11523 150.71875v1.25h-23.10937v5.97656h-1.7207v-5.97656h-27.92188v4.99609h-1.7207v-4.99609h-10.44531v.53906h-1.72071v-.53906h-4.16992v8.41602h-1.7207v-8.41602H607.9082v7.28906h-1.7207v-7.28906h-17.20117v1.28906h-1.72071v-1.28906h-21.32617v3.35156h-1.7207v-3.35156h-13.94727v6.35156h-1.7207v-6.35156h-19.53125v10.66602h-1.7207v-10.66602h-16.66016v.72461h-1.7207v-.72461h-14.21875v.72461h-1.7207v-.72461h-12.50391v21.63086h9.875v-13.5918h1.7207v.82813h8.96875v-.82813h1.72071v2.54883h-10.68946v12.76367h-11.5957v2.23047h21.96289v4.50195l1.63477 3.96289h11.5664v1.72071h-12.81055l-1.92382-4.83789v20.3125l1.9414-4.35156h12.79297v1.7207h-11.58398l-1.61719 3.45117v3.9668h-22.42773v32.375h29.76171v1.7207h-28.53125v10.40039h2.48438v-2.51562h1.7207v4.23632h-4.20508v2.96875h6.43946v-10h1.7207v.8086h10.81445v1.7207h-1.5957v.6582h-1.7207v-.6582h-7.49805v13.59766h7.49805v-10.8125h9.10351v11.59765h8.72461v-14.38281h-9.63867v-1.7207h9.63867v-5.89844h-.83008v-1.7207h2.55079v15.45507h5.18359v3.52735h-1.7207v-1.80664h-3.46289v8.26758h-10.44532v6.76367h13.90821v-8.41016h1.7207v10.13086h-8.79102v3.36133H486.5v4.11719h26.33984v2.79882h17.22852v3.9375h-37.58398v7.90626l-9.14258 4.96093v9.69922h-1.72071v-10.72265l9.14258-4.96094v-6.88282H472.2168v84.97461h9.40429v-.9082h1.82813l-.10742 15.57813h-1.72071v-12.94922h-5.32617v6.23828h-2.68359v-1.7207h.96289v-4.51758h-2.35742v25.40234h9.40429v-7.88476h1.72071v7.88476h2.2207v13.89063h2.82617v1.7207h-12.95312v-1.7207h8.40625v-12.16993h-11.625v5.62891h-.0215v.0605h-6.73242v3.35937l-2.70703 4.86524v15l2.70703 3.6875v3.74804h5.45313l3.96679-8.2539h13.50586v1.7207h-12.40039l-3.77148 7.82617v3.7168h11.125v9.08789h-1.72071v-7.36719h-9.40429v25.72461h9.40429v-13.78906h1.72071v31.06836h-1.72071v-15.55859h-9.40429v42.11328h9.40429v-12.88282h1.72071v23.27344h-1.72071v-8.66992h-9.40429v41.33789h18.54687v-6.64844l-9.14258-5.74804v-6.30274h1.72071v5.35156l9.14258 5.74805v7.59961h31.80664v3.68359l-24.33594.041v7.16211h16.46484v1.7207h-16.75v11.90821h16.75v1.7207h-16.46484v5.35351h-1.7207v-.56836h-9.03321v7.58594h-2.07812v-1.7207h.35742v-5.86524h-7.64844v5.86524h5.39844v1.7207h-5.39844v1.77344h1.89063v1.7207h-1.89063v3.85742h3.2793v-4.71875h1.7207v4.71875h4.12695v-3.85742h-1.83593v-1.7207h3.55664v8.77539h-1.72071v-1.47656h-9.12695v7.54687h9.12695v-3.91015h1.72071v8.09961h-1.72071v-2.46875h-9.12695v7.99804h9.12695v-3.36914h1.72071v7.73438h-1.72071v-2.64453h-9.12695v6.50781h9.12695v-2.01758h1.72071v2.01758h.49023v1.7207h-11.33789v7.81641h2.07227v1.7207h-2.07227v32.8418h4.47656v.0644h10.2168v1.7207h-4.08984v4.22266h-1.72071v-4.22266h-4.40625v8.97461h13.55079v-8.97461h-1.35743v-1.7207h3.07813v12.41602h-6.66797v1.09179h-1.7207v-1.09179h-6.88282v.0215h-4.47656v4.72656h11.35938v-2h1.7207v2h10.7129v-15.39453h1.7207v15.39453h154.01758v-35.05664h1.7207v14.58008h8.10547v-14.58008h1.72071v14.58008h7.64843v-14.58008h1.72071v14.58008h1.41601v1.7207h-20.61133v18.75586h61.36133V673.125l6.99805-7.03906-3.0293-3.0293-3.96875 3.9668v-2.72656l6.99805-7.04102-3.0293-3.0293-3.96875 3.96875v-2.63476l6.99805-7.03907-3.0293-3.02929-3.96875 3.96679v-2.82226l6.99805-7.03906-3.0293-3.0293-3.96875 3.9668v-2.72657l6.99805-7.04101-3.0293-3.02735-3.96875 3.9668v-2.72851l6.99805-7.03907-3.0293-3.02929-3.96875 3.96679v-2.72656l6.99805-7.04101-3.0293-3.0293-3.96875 3.96875v-2.72852l6.99805-7.03906-3.0293-3.0293-3.96875 3.9668V575.6875h1.22852v-9.95508h-1.22852v-3.86328h-25.63672v9.91602h-1.7207v-.70118h-.91797v-1.7207h.91797v-7.49414h-3.44727v7.49414h.36133v1.7207h-.36133v9.04688h-20.73437v.73633h-1.72266v-2.45703h3.74805v-.56836h1.7207v.56836h3.75977v-4.02539h1.7207v4.02539h9.78711v-7.32618h-16.98828v-6.03906h1.7207v4.31836h15.26758v-7.49414h-9.78711v4.72852h-1.7207v-4.72852h-3.75977v.56055h-1.7207v-.56055h-11.84766v3.17578h-1.7207v-3.17578h-15.00195v-1.50781h-6.03321v5.58203h-26.08007v4.03711h26.08007v5.47656h-27.80078v-15.0957h-29.38281v-2.33008h.11133v-.0625h17.125v-.88477h49.08984v-.94921h1.10157v-10.95313h1.7207v2.79688h7.09765v1.7207h-7.09765v6.43555h6.23828v-2.99415h-4.08789v-1.7207h5.80859v4.71485h1.78907v-6.43555h-.71485v-1.7207h.71485v-7.47657h7.54492v-15.7539h-4.17188v-1.72071h4.17188v-14.00781h-2.78125v-1.7207h3.28515v.004h2.59961v50.76368h53.00391v-44.95508h14.21289v1.7207h-12.49219v12.99414h24.42383v-6.9707h1.7207v8.69141h-26.14453v28.50585h38.1836v1.23243h8.42578v-1.23243h5.24218V448.24219h3.57422v1.26953h9.75196v-1.26953h2.96484v-16.41797h-6.75v-3.22461h1.0625v2.01172h5.6875v-13.89258h-5.6875v8.22266h-1.0625v-9.67969h6.75v-17.10547h-2.96484v-1.25h-9.75196v1.25h-3.57422V288.16211h-5.24218v-1.25586h-8.42578v1.25586h-38.01563v28.64648h25.98242v8.54688h-1.7207v-6.82617h-24.26172v12.46484h16.69922v1.7207h-18.41992v-44.55273H669.2793v49.63281h-1.90235V322.7832h-3.77734v-1.7207h3.77734v-15.74609h-7.61914v-14.44336h-2.20898v4.41015h-5.16211v-1.7207h3.4414v-2.68945h-6.48046v5.65039h7.64453v1.7207h-7.64453v2.40234h-1.72071v-9.77343h-13.00586v-1.31055h-34.12695v.99805h-1.7207l-.02344-2.40235h-28.95117v-.0586h-.006v-3.42383h.006v-.0977h2.00781v-3.27734h1.7207v3.27734H592.625v-7.5332h1.7207v7.5332h40.00391v-7.5332h1.7207v7.5332h17.57227v-5.87695h1.7207v5.87695h27.92188v-5.87695h1.7207v5.87695h37.58984v-3.27734h1.27344v-8.71094h-1.27344V240.9355l3.81836 3.8164 3.0293-3.02929-6.84766-6.88868v-2.72851l3.81836 3.81836 3.0293-3.0293-6.84766-6.89062v-2.72657l3.81836 3.81641 3.0293-3.0293-6.84766-6.88867v-2.72851l3.81836 3.8164 3.0293-3.02734-6.84766-6.89063v-2.72656l3.81836 3.81641 3.0293-3.0293-6.84766-6.88867v-2.82227l3.81836 3.81641 3.0293-3.0293-6.84766-6.88867v-2.63477l3.81836 3.81836 3.0293-3.02929-6.84766-6.89063v-2.72656l3.81836 3.81641 3.0293-3.0293-6.84766-6.88867V151.9687h-5.70117v-1.25zm-199.19726 3.47656h1.7207v2.36133h-7.8789v1.20117h-1.72071v-1.20117h-8.96875v.63867h-1.7207v-2.35937h18.56836zm9.67383 2.14063h5.92382v6.29883h-1.7207v-4.57813h-4.20312zm68.67382.85937h1.72071v7.2168h17.20117v-2.3418h1.7207v4.0625h-35.41211v-4.88867h-8.27734v-2.92383h1.7207v1.20313h8.27735v4.88867h13.04882zm-71.5957 3.93946h1.7207v16.82617h-1.7207zm167.61524 0h1.7207v2.0625h-1.7207zm0 4.875h1.7207v8.38085h12.38086v87.88868h-12.38086v7.25586h-1.7207v-8.97657h12.3789v-84.44531h-12.3789zm-29.64258.63281h1.7207v102.89258h-1.7207v-20.21485h-35.9043v-1.7207h35.9043v-16.07813h-10.50977v-1.7207h10.50977zm-29.53711 4.45117h13.05078v43.81836h-1.7207v-12.01172h-9.6836v-1.7207h9.6836v-28.36524h-11.33008zm-75.55469.85937h1.7207v4.30274h6.66407v1.7207h-6.66407v1.93555h-1.7207zm62.00586 1.64844h6.14844v1.72266h-4.42774v36.68945h9.48047v1.72071h-9.48047v25.62304h-1.7207v-25.62304h-9.52148v-1.72071h9.52148v-31.24023h-8.85937v-1.72071h8.85937zm-46.47852 2.6543h6.91797v2.79687h23.45899v1.72071h-6.41211v9.60351h-1.7207v-9.60351h-15.32618v9.60351h-1.7207v-12.40039h-5.19727zm-33.20703 1.13086h4.15625v3.76562h-4.15625zm38.4043 18.15234h1.7207v7.97852h30.03907v1.7207h-30.03907v24.5625h6.67579v1.7207h-6.67579v16.07813h30.03907v1.7207h-14.70508v16.86914h10.27344v1.72071h-11.99414v-12.45508l-3.8086-6.13477h-11.52539zm-38.24609 9.07422h4.15625v3.75391h-4.15625zm-27.3086 27.17969h4.19922v3.82422h-4.19922zm44.23242 17.90234h1.72071v7.12696l8.62109 7.34765h14.73438v3.74024h-2.55469v-2.09375h-13.16797l-9.35352-8.08008zm62.92188 8.45313h1.7207v8.04101h22.01368v-7.47851h1.7207v7.47851h5.69922v1.72071h-26.36719v6.46289h-1.7207v-6.46289h-9.95118v-1.72071h6.88477zm-79.94336.96679h4.13672v3.74219h-4.13672zm152.35352 14.30665h1.7207v2.25195h-1.7207zm-134.72852 9.39453h5.07227v5.2832h-5.07227zm1.7207 1.7207v1.8418h1.63086v-1.8418zm-69.80468 6.49609h1.7207v2.28125h-7.82031v-1.7207h6.09961zm154.78906 3.38868h1.7207v1.34765h5.89844l.008 32.55469h17.54297v9.44336h-1.61328v15.14258h-22.9123v-24.58594H591.1543v4.83984l2.11718 2.11719-1.14062 1.07617-2.42188-2.42187h-12.65625l-2.42382 2.42187-1.30469-1.37695 1.81445-1.81641v-4.83984h-30.89844v15.11719h15.76172v1.7207h-17.48242l-.0215-43.7168h56.27539v-6.72265h1.7207v1.04687h9.94531v1.7207h-1.00586v.61524h-1.72265v-.61524h-7.2168v3.79883h5.01172v1.72071h-5.03516v9.78711h7.70508V299.9668h10.35938v12.83008h7.18359v-9.78711h-4.86914v-1.72071h4.86914v-3.79883h-6.99805v.61524H617v-.61524h-.67578v-1.7207h13.19922v1.7207h-.77539v7.18946h4.59961v-7.18946h-2.36719v-1.7207h4.28125zm12.36523 8.68359h1.72071v.54101h7.64453v1.72071h-.53907v6.80859h-3.0625v-1.72266h1.3418v-5.08593h-5.38476v5.08593h1.63672v1.72266h-1.63672v1.94141h-1.72071v-9.60938zm-153.66015 2.23828h11.10351v1.72266h-9.38281v11.49023h31.03516v-11.49023h-8.69922v-1.72266h10.41992v53.11133h-2.05078v-1.7207h.33008v-10.01172h-13.96875v10.01172h10.16211v1.7207l-28.94336.0527-.006-24.61328h1.7207v9.19336h13.51367v-21.32028H495.6875v7.9414h-1.7207v-10.55859zm15.64843 0h3.53125v1.72266h-3.53125zm-27.99414 10.30664h1.72071v11.76953h-1.72071zm166.00586.96875h1.72071v4.44336h11.04687v1.7207h-12.76758zm102.2168 12.38867h1.7207v1.98633h10.19336v26.83789h-1.72265v-25.11719h-10.19141zm-4.33594 1.98633h1.50586v1.7207h-1.50586zm-263.88672 1.125h1.72071l.10742 16.41602h-1.7207zm-8.00976 8.49219h2.68359v7.97851h-2.68359v-1.7207h.96289v-4.53711h-.96289zm108.76758 4.00781h4.22265l3.36524 3.36524V354.75l-2.85742 2.86133h-5.75977l-3.2793-3.28125 1.21485-1.2168 2.77734 2.77734h4.33398l1.84961-1.85156v-5.34179l-2.35742-2.35743h-3.50976zm-2.79493.92383 1.2168 1.2168-2.18945 2.18945-1.2168-1.2168zm-97.85546 6.83203h1.7207v15.52344h-1.7207zm118.83398 4.24219h22.23438v10.1289h-1.72071v-8.4082h-19.80273l-2.17188 2.17188-1.21679-1.21875zm35.34375 1.51953h22.91211l-.0156 10.12305h-1.7207v-2.03125h-19.4375v1.66992h-1.7207zm-94.0918.36133h10.95313v1.7207h-9.23242v2.29687h-1.72071zm13.98047 0h10.62305l5.44336 5.44922-1.2168 1.21484-4.94141-4.94336h-9.9082zm204.24024 4.92578h1.72265v17.42383h-1.72265zm-218.22071 1.7539h1.72071v7.28125h31.52343v-3.28906l-1.88476-1.88672 1.21679-1.21679 2.38868 2.39062v31.74414h-1.72071v-8.09765h-28.56054v22.35546h8.29101v1.72071h-18.68359v-1.72071h6.39258v-22.35546h-46.79688v22.35546h7.84766v1.72071h-9.56836v-44.18555h9.56836v1.7207h-7.84766v15.93555h30.69141v-15.93555h-7.91211v-1.7207h23.33398zm49.96094.93946 1.17578 1.25586-2.00781 1.88281v7.8418h30.13281v-4.24414h1.72071l.0176 37.21289-33.59179-.0137V401.25h1.7207v7.08203h11.70117v-13.14062h-13.43945v-2.57618h14.78515v-11.76757h-13.04687v6.57226h-1.7207v-18.91015zm-81.37891 5.87695h2.51758v1.7207h-2.51758zm125.52735.85938h1.7207v2.91406h19.4375v-2.91406h1.7207v29.11328l-2.58398 2.55078-1.20898-1.22461 2.07226-2.04492v-1.20508h-21.17578zm124.11133 14.01562h1.72265v13.55078h-16.95703v7.31446h-1.7207v-9.03516h16.95508zm-184.97657 19.29492h1.72071v10.01563h-7.94336v-1.72071h6.22265zm-64.66211 8.29492h19.88086v1.72071h-19.88086zm48.89649 0h3.71289v1.72071h-3.71289zm73.88281 1.59375 1.21875 1.2168-.98633.98633v7.08594h.37891v1.7207h-2.09961v-9.51953zm3.57227 0 1.49023 1.49024v9.0293h.99024v3.4707h-1.72071v-2.98047h-1.36914v-1.7207h.37891v-7.08594l-.98828-.98633zm106.33203 1.14649h1.7207v11.40039h-1.7207zm-99.87696 7.64453h10.02735v7.0625h15.12305v1.7207h-16.84375v-7.0625h-8.30665zm-149.22265 5.76758h9.56836v1.7207h-7.84766v9.07813h-1.7207zm16.41601 0h19.08399v1.7207h-19.08399zm25.17969 0h17.75391v1.7207h-6.83203v22.39649h28.76367v-8.41407h1.7207v19.48047h-1.7207v-8.44531h-46.58984v17.20703l-10.38868-.0195v-1.7207h7.94922v-15.4668h-30.53125v15.4668h7.84766v1.7207h-9.56836v-28.22266h1.7207v8.41407h47.44336v-22.39649h-7.56836zm21.73047 0h6.49414v1.7207h-6.49414zm10.86524 0h8.81054v9.60742h-1.7207v-7.88672h-7.08984zm76.02929 2.90039h1.72071v7.18945h-1.72071zm-6.69336.49414h1.72071v3.34766h-1.72071zm-48.32422 1.61719h21.43164v1.7207h-3.66406v28.45117h14.21094v-15.30664h1.72266v23.78906h-1.72266v-6.03125H590.9043v9.64063l2.8457 2.8457-1.2168 1.2168-3.34961-3.34961v-27.74219h1.72071v14.9375h14.32617v-28.45117H590.9043v8.43164h-1.72071zm25.02344 0h8.67774v9.41406h-1.72266v-7.69336h-6.95508zm129.05274 3.06836h1.7207v6.05664h16.75391v70.08398h-10.17579v2.31055h-1.7207v-2.31055h-4.51172v-1.7207h14.6875v-66.64258h-16.7539zm-91.75.77343h16.84375v1.72071h-15.12305v6.65234h5.58984v3.93164h-1.7207v-2.21094h-6.79883v-1.7207h1.20899zm-14.00196 2.84375h1.72071v3.4668h-1.72071zm-1.5957 5.5293h9.5625v1.7207h-7.8418v2.21094h-1.7207zm0 8.46094h1.71875v1.48437h19.4668v-1.48437h1.7207v16.87305h-8.88672v3.30664h7.82031v1.7207h-7.82031v7.3789h7.82031v1.72071h-4.40039v5.14062h4.40039v1.72071h-4.40039v5.27539h4.40039v1.7207h-4.40039v6.14844h5.95703v-.006H661.75v1.7207h-1.56836v9.71875H643.0957v31.21484h-9.70757v-8.66015h-4.64399v8.66015h-3.31641v-.0215h-9.12109v-1.7207h9.12109v-2.85352h-4.75v-1.7207h4.75v-9.40625h-6.47851v12.75781h-11.51758v-12.75781h-6.48242v9.40625h4.41797v1.7207h-4.97657v2.85352h9.89454v1.7207h-9.89454v.88086h-1.7207v-5.16016h-1.79883v.004h-5.49804v-1.7207h5.3457v-22.68946h-54.9043v-8.05468h1.72071v3.82617h32.64257v-4.625l-3.26562-3.27539 1.05078-.96485 3.24414 3.50586h12.04492l3.94922-4.15039 1.04883 1.0293-1.04883.92578v1.76953h5.23047v3.30274h-1.7207v-1.58204h-3.50977v5.17188h3.50977v-1.33789h1.7207v1.33789h37.47461v-15.17578h-6.50195v-1.7207h6.50195zm-60.65039 14.66211h1.7207v7.11328l-9.99219 9.81445h-7.95898v-1.7207h7.24414l8.98633-8.80664zm-66.73633 1.85547h4.48828v1.7207h-4.48828zm27.05078 0h7.95899v13.35156h9.79492v1.7207h-11.51563v-13.35156h-6.23828zm85.58594 5.79687h1.72266v10.27734h-23.7793l-3.10156-3.0996 1.21679-1.2168 2.59571 2.5957h21.3457zm-127.18164 9.21875h11.22461v1.7207h-9.50391l-.13281 9.54493h30.82422l.13281-9.54493h-8.79297v-1.7207h10.51367v10.50586h.0254l-.0195 32.75195h-1.72656v-3.00781h-30.82422v10.8125h8.71289v1.7207h-10.43359v-24.78125h1.7207v8.52344H510.375v-21.5664h-14.67383v8.05664h-1.7207zm15.71484 0h3.31836v1.7207h-3.31836zm68.77735 2.17578h1.7207v2.47852l-1.26172 1.25586v6.95898l-.86523.86914 1.62109 1.62305h7.10547l1.12891-1.12695-1.99219-1.98829 1.70117-1.69335v-8.37696h1.7207v9.08985l-.98437.98046 1.99219 1.98829-2.85352 2.84765h-8.5293l-3.34179-3.34179 1.57617-1.58204v-6.96289l1.26172-1.25586zm-36.65821 11.22071h22.45117v1.7207h-20.73046v3.92969h-1.72071zm58.0293 0h24.89063v1.7207h-24.89063zm48.72852 21.79882h12.25976v1.72071h-10.53906v3.65625h-1.7207zm-106.67969 2.80078h1.7207v18.07227h9.04102v1.72266h-10.76172zm106.67969 5.37305h1.7207v2.36524h.64453v1.7207h-.64453v4.94727h4.08594v-4.94727h-1.07422v-1.7207h2.79687v6.66797h1.28906v1.7207h-7.09765v.21484h-1.7207v-7.74219zm-122.04688 3.7793H528.25l-.004 5.63476h-10.51367v-1.7207h8.79297zm-17.2207 3.91406h4.09961v1.7207h-4.09961zm58.20508 5.04102h6.32031v1.7207h-6.32031zm91.85351 23.68554h1.7207v11.65039h-1.7207zm13.56836 5.17579h1.7207v3.3164h-1.7207zm22.15625 2.74023h1.7207v98.24023h-5.88671v-1.7207h4.16601v-38.00391h-5.1582v-1.7207h5.1582V585.9043h-.91797v-1.72071h.91797zm-35.72461 6.71484h1.7207v50.08008h21.46094v1.7207h-2.26562v15.18555h-1.72071v-15.18555h-17.47461v15.61133h-1.7207zm9.82031 1.21289h1.72071v.71875h21.09765v1.72071h-.36133v3.02539h-1.7207v-3.02539h-11.19726v19.5664h11.19726v-14.25781h1.7207v29.61133h-1.7207v-13.63281h-11.29687v19.7207h11.29687v-3.6875h1.7207v5.4082l-27.60156-.008.0215-35.48438h1.7207v12.2754h11.2207V585.9043h-11.2207v4.70703h-1.7207v-6.42774h5.12304zm-141.95507 4.92383 1.21484 1.2168-6.79102 6.79297-1.21679-1.2168zm-28.99414 4.18164h1.7207v3.01953h-4.5957v6.10352h3.63671v1.7207h-3.63671v5.39063h3.63671v1.7207h-3.63671v5.56836h3.63671v1.7207h-3.63671v5.56641h3.63671v1.7207h-3.63671v5.20508h3.63671v1.7207h-3.63671v.89844h-2.39063v-1.7207h.66992v-37.33594h4.59571zm15.58398 9.40821 1.2168 1.21679-1.67969 1.67969v31.22852h-1.7207v-31.94141zm171.2832 30.35351h2.12891v1.7207h-2.12891zm-15.91211 6.32813h1.72071v10.57812h-1.72071zm-184.58789 2.08203h10.48828v5.49023h16.54493v-4.17773h1.7207v5.89843h-8.00977v25.95313h-1.7207v-5.4375h-18.26172v-22.00391h1.7207v6.69727h6.28516v-.75977h1.7207v4.00977h.40039v1.7207h-2.12109v-3.25h-6.28516v11.86524H503.625v-8.61524h-5.70508v-1.7207h5.70508v-8.45899h-8.53516v2.28907h-1.7207v-7.7793h-6.28516v.94336h-1.7207v-.94336h-.76172zm200.5 31.31445h2.12891v1.7207h-2.12891z"></path>
    </g>
    <g id="Ramps-1" class="road_tarmac road_small" data-name="Ramps" transform="translate(.339458 .675452) scale(.888877)">
      <path d="M655.957 554.108v11.925" style="stroke:url(#linearGradient84);stroke-width:12"></path>
      <path d="M583.691 335.255H568.87" style="stroke:url(#linearGradient187)"></path>
      <path d="M652.432 326.343h13.403" style="stroke:url(#linearGradient190)"></path>
      <path d="M579.816 313.94h-33.074" style="stroke:url(#linearGradient194)"></path>
      <path d="M563.053 216.585h17.896" style="stroke:url(#linearGradient192)"></path>
      <path d="M717.221 638.191h-28.934" style="stroke:url(#linearGradient185)"></path>
      <path d="M561.802 648.207h18.351" style="stroke:url(#linearGradient183)"></path>
      <path d="M583.585 615.841h-14.653" style="stroke:url(#linearGradient180)"></path>
      <path d="M533.58644 475.528h18.362" style="stroke:url(#linearGradient178)"></path>
      <path d="M573.383 475.528h14.56" style="stroke:url(#linearGradient175)"></path>
      <path d="M638.579 475.435h-14.653" style="stroke:url(#linearGradient173)"></path>
      <path d="M673.541 475.528h14.838" style="stroke:url(#linearGradient169)"></path>
      <path d="M887.832 468.502v14.181" style="stroke:url(#linearGradient240)"></path>
      <path d="M652.985 622.444h14.07" style="stroke:url(#linearGradient244)"></path>
    </g>
  </g>
  
</svg>