<svg xmlns="http://www.w3.org/2000/svg" xmlns:xlink="http://www.w3.org/1999/xlink" xml:space="preserve" id="svg235" viewBox="0 0 1127.6852 947.02582">
  <style id="style_common">
    .trees { fill:#144043 }
    .cement { fill:#c6c2c2 }
    .land { fill:#1f5054 }
    .rock { fill:#dcd5b6 }
    .water { fill:#4a6b96 }
    .wood { fill:#593700 }
    .tarmac { fill:#768089 }
    .gravel { fill:#946d3e }
    .building { fill:#1a2632 }
    .floor { fill:#70777f }
    .locked { fill:#37414c }
    .map_border { fill:none;stroke:#000;stroke-width:2 }
    .fence { fill:none;stroke:#c4e3c3;stroke-width:1 }
    .road_tarmac { fill:none;stroke:#888 }
    .road_gravel { fill:none;stroke:#946d3e }
    .road_small { stroke-width:5 }
    .road_medium { stroke-width:8 }
    .road_large { stroke-width:12 }
    .railroad { fill:none;stroke:#914833;stroke-dasharray:6;stroke-width:3 }
    .powerline { fill:none;stroke:#ffce00;stroke-width:2;stroke-miterlimit:10;stroke-dasharray:6,6 }
    .danger { fill:red;fill-opacity:.4;stroke:red;stroke-dasharray:4,2;stroke-width:2 }
    .task { fill:#000 }
    .stairs { fill:#FFD700 }
    .shadow { filter:drop-shadow(0 0 2px #000) }
  </style>
  <style id="style_interchange">
    .structure{ fill:#4b4b4b }
  </style>
  <defs id="defs1">
    <linearGradient id="rampDown_l2r">
      <stop offset="0" style="stop-color:#777777;stop-opacity:0"/>
      <stop offset="1" style="stop-color:#000000;stop-opacity:0.5"/>
    </linearGradient>
    <linearGradient id="rampDown_r2l">
      <stop offset="0" style="stop-color:#000000;stop-opacity:0.5"/>
      <stop offset="1" style="stop-color:#777777;stop-opacity:0"/>
    </linearGradient>
    <linearGradient id="rampUp_l2r">
      <stop offset="0" style="stop-color:#ffffff;stop-opacity:0"/>
      <stop offset="1" style="stop-color:#ffffff;stop-opacity:0.5"/>
    </linearGradient>
    <linearGradient id="rampUp_r2l">
      <stop offset="0" style="stop-color:#ffffff;stop-opacity:0.5"/>
      <stop offset="1" style="stop-color:#ffffff;stop-opacity:0"/>
    </linearGradient>
    <linearGradient xlink:href="#rampDown_l2r" id="linearGradient199" x1="570.80627" x2="591.41376" y1="547.44904" y2="547.44904" gradientUnits="userSpaceOnUse"/>
    <linearGradient xlink:href="#rampDown_l2r" id="linearGradient204" x1="619.79303" x2="641.30688" y1="422.59802" y2="422.59802" gradientUnits="userSpaceOnUse"/>
    <linearGradient xlink:href="#rampDown_l2r" id="linearGradient208" x1="570.74658" x2="591.21991" y1="298.05548" y2="298.05548" gradientUnits="userSpaceOnUse"/>
    <linearGradient xlink:href="#rampDown_l2r" id="linearGradient244" x1="655.25275" x2="667.29785" y1="553.22253" y2="553.22253" gradientUnits="userSpaceOnUse"/>
    <linearGradient xlink:href="#rampDown_r2l" id="linearGradient178" x1="548.24091" x2="564.77557" y1="422.53278" y2="422.53278" gradientUnits="userSpaceOnUse"/>
    <linearGradient xlink:href="#rampDown_r2l" id="linearGradient183" x1="573.39221" x2="589.56195" y1="576.43915" y2="576.43915" gradientUnits="userSpaceOnUse"/>
    <linearGradient xlink:href="#rampDown_r2l" id="linearGradient185" x1="684.66193" x2="711.6239" y1="567.37439" y2="567.37439" gradientUnits="userSpaceOnUse"/>
    <linearGradient xlink:href="#rampDown_r2l" id="linearGradient190" x1="654.51849" x2="665.97156" y1="289.8432" y2="289.8432" gradientUnits="userSpaceOnUse"/>
    <linearGradient xlink:href="#rampDown_r2l" id="linearGradient192" x1="576.3573" x2="589.80786" y1="192.79044" y2="192.79044" gradientUnits="userSpaceOnUse"/>
    <linearGradient xlink:href="#rampDown_r2l" id="linearGradient194" x1="559.69928" x2="590.40698" y1="278.69775" y2="278.69775" gradientUnits="userSpaceOnUse"/>
    <linearGradient xlink:href="#rampDown_r2l" id="linearGradient202" x1="673.22711" x2="695.30042" y1="422.70334" y2="422.70334" gradientUnits="userSpaceOnUse"/>
    <linearGradient xlink:href="#rampDown_r2l" id="linearGradient206" x1="583.65594" x2="605.47681" y1="422.56631" y2="422.56631" gradientUnits="userSpaceOnUse"/>
    <linearGradient xlink:href="#rampDown_r2l" id="linearGradient240" x1="863.42493" x2="863.42493" y1="428.76938" y2="416.15024" gradientUnits="userSpaceOnUse"/>
    <linearGradient xlink:href="#rampDown_r2l" id="linearGradient84" x1="657.24396" x2="657.24396" y1="502.37454" y2="489.20514" gradientUnits="userSpaceOnUse"/>
    <linearGradient xlink:href="#rampUp_l2r" id="linearGradient169" x1="673.34357" x2="686.22186" y1="422.54663" y2="422.54663" gradientUnits="userSpaceOnUse"/>
    <linearGradient xlink:href="#rampUp_l2r" id="linearGradient175" x1="584.40588" x2="596.59332" y1="422.229" y2="422.229" gradientUnits="userSpaceOnUse"/>
    <linearGradient xlink:href="#rampUp_l2r" id="linearGradient229" x1="577.13721" x2="585.26691" y1="192.14255" y2="192.14255" gradientUnits="userSpaceOnUse"/>
    <linearGradient xlink:href="#rampUp_l2r" id="linearGradient231" x1="559.83801" x2="578.79132" y1="278.44525" y2="278.44525" gradientUnits="userSpaceOnUse"/>
    <linearGradient xlink:href="#rampUp_l2r" id="linearGradient233" x1="549.2016" x2="559.91034" y1="421.91113" y2="421.91113" gradientUnits="userSpaceOnUse"/>
    <linearGradient xlink:href="#rampUp_l2r" id="linearGradient235" x1="574.34711" x2="585.57257" y1="575.76074" y2="575.76074" gradientUnits="userSpaceOnUse"/>
    <linearGradient xlink:href="#rampUp_l2r" id="linearGradient237" x1="657.16199" x2="657.16199" y1="507.30679" y2="489.81567" gradientUnits="userSpaceOnUse"/>
    <linearGradient xlink:href="#rampUp_l2r" id="linearGradient239" x1="685.30359" x2="702.33179" y1="566.5777" y2="566.5777" gradientUnits="userSpaceOnUse"/>
    <linearGradient xlink:href="#rampUp_r2l" id="linearGradient173" x1="628.65796" x2="641.47662" y1="422.68347" y2="422.68347" gradientUnits="userSpaceOnUse"/>
    <linearGradient xlink:href="#rampUp_r2l" id="linearGradient180" x1="580.14874" x2="592.89923" y1="547.57135" y2="547.57135" gradientUnits="userSpaceOnUse"/>
    <linearGradient xlink:href="#rampUp_r2l" id="linearGradient187" x1="579.55914" x2="593.30176" y1="297.75217" y2="297.75217" gradientUnits="userSpaceOnUse"/>
    <linearGradient xlink:href="#rampUp_r2l" id="linearGradient219" x1="863.62848" x2="863.62848" y1="428.51624" y2="415.77615" gradientUnits="userSpaceOnUse"/>
    <linearGradient xlink:href="#rampUp_r2l" id="linearGradient221" x1="859.25153" x2="859.25153" y1="267.0549" y2="229.66937" gradientUnits="userSpaceOnUse"/>
    <linearGradient xlink:href="#rampUp_r2l" id="linearGradient223" x1="827.39575" x2="865.86719" y1="161.44046" y2="161.44046" gradientUnits="userSpaceOnUse"/>
    <linearGradient xlink:href="#rampUp_r2l" id="linearGradient225" x1="858.66565" x2="858.66565" y1="575.07996" y2="615.83398" gradientUnits="userSpaceOnUse"/>
    <linearGradient xlink:href="#rampUp_r2l" id="linearGradient227" x1="826.42755" x2="864.82324" y1="682.54443" y2="682.54443" gradientUnits="userSpaceOnUse"/>
    <linearGradient xlink:href="#rampUp_r2l" id="linearGradient242" x1="661.1485" x2="668.93115" y1="289.62399" y2="289.62399" gradientUnits="userSpaceOnUse"/>
    <linearGradient xlink:href="#rampUp_r2l" id="linearGradient246" x1="660.5708" x2="669.35779" y1="622.61993" y2="622.61993" gradientUnits="userSpaceOnUse"/>
  </defs>
  <g id="Second_Floor" data-name="Second Floor">
    <g id="Structure-2" class="shadow building" data-name="Structure">
      <path d="M552.242 149.783v136.225h-7.941v272.691h8.001v134.16l245.505.01v-133.83h54.989V448.858h16.527v-53.269h-17.089V285.861h-54.427V149.783Zm101.016 190.75h8.169l5.72 5.748v8.211l-5.72 5.749h-8.169l-5.721-5.749v-8.211zm.457 73.049h7.368l2.522 2.522h28.601l2.815 2.791v7.215l-2.878 2.876H663.49l-2.589 2.588h-7.232l-2.587-2.588h-28.387l-2.961-2.961v-7.13l2.793-2.791h28.646zm-81.455 2.522h30.392l2.815 2.791v7.215l-2.878 2.876h-30.158l-2.961-2.961v-7.13zm80.918 68.909h8.152l5.706 5.741v8.202l-5.706 5.744h-8.152l-5.707-5.744v-8.202z"/>
    </g>
    <g id="Floor-2" class="floor" data-name="Floor">
      <path d="M566.468 287.971v7.776l-9.466 5.148-.005 41.907h-1.719v-11.405l-9.359-.015v39.172h9.359v-13.148h1.719v14.867h-11.078v33.674h-7.743v5.132l-2.244 4.169v13.567l2.244 4.173v5.454h7.743v33.687h11.116v16.555h-1.719v-14.836h-9.397v39.059h9.397v-12.451h1.719v25.706h-1.719v-8.274h-9.397v40.224h18.545v-8.449l-9.148-5.034v-5.557h1.719v4.513l9.149 5.033v9.494h31.125v-11.673h5.453v1.719h-3.734v9.954h27.269v-9.954h-4.641v-1.719c28.766 0-39.662-.026 41.057-.026v11.699h9.889v-5.69h1.72v5.69h34.855v-3.34h1.719v3.34h23.355v-8.983h-7.913v3.176h3.963v1.719h-5.682v-4.895h-13.611v.838l-.112.503v1.581h-1.719v-2.084h-3.704v-8.952h-3.323v6.967h.843v1.719h-13.964v-1.719h9.924v-14.084h-6.881v12.455h-10.616v-12.455h-7.134v14.084h9.889v1.719h-9.889v.744h-1.719v-14.723l-45.94-.022v-1.719h5.949v-13.428h-14.416v13.428h5.622v1.719h-7.341v-34.759h8.308v1.72h-6.589v13.508h29.454v-4.676l-1.246-1.242 1.216-1.217 1.204 1.204h15.07l11.565-11.566h24.139v-9.915h4.641v1.719h-2.922v8.196h3.357v-4.603h-1.638v-1.719h4.99v1.719h-1.633v4.603h3.794v-8.196h-3.536v-1.719h3.536v-23.328h-2.676v-1.719h2.676v-83.08h-3.653v-1.719h3.653v-22.643h-2.853v-1.719h2.853v-8.059h-4.069v4.706h1.216v1.72h-3.993v-1.72h1.058v-4.706h-2.592v8.059h2.811v1.719h-4.53v-9.778h-3.546v.62l-1.719-.001v-2.003h-20.1l-11.379-11.048H650.85l-2.757 2.806-1.217-1.212.774-.774v-7.697h-29.547v14.763h7.516v1.719l-9.235-.001v-34.886l7.323.001v1.719h-5.604v14.148h14.514v-14.148h-4.445v-1.72l44.603.009v-14.98h1.719v1.651h9.305v1.719h-9.305l.043 15.392h7.065v-13.645h10.345v13.645h7.221v-15.392h-9.769v-1.719h13.972v1.719l-.602.034v6.936h3.297v-6.97h-.631v-1.719l3.962.001v-1.652h1.719v2.507h22.495v-8.341h-7.113v2.922h4.092v1.72h-5.811v-4.642h-13.663v2.964h-1.719v-2.964h-34.903v2.964h-1.719v-2.964h-10.474v10.16h-34.129l-.502.123h-6.86v-1.72h5.423v-8.563h-26.809v8.564h16.938v1.719h-18.657v-10.283zm4.254 6.038h21.98v7.852h-21.98v-1.719h20.26v-4.414h-20.26zm-1.792 14.172h10.349v1.72h-8.63v10.353h12.297v-11.468h4.543v11.468h12.966v-10.353h-8.613v-1.72h10.333v23.697h-1.72v-9.482h-9.572v5.932h-1.719v-5.932h-1.675v19.972h12.966v-6.846h1.72v21.622l-1.053.021h-18.176v-11.501h-12.297v9.606h7.719v1.719h-9.438v-20.733h1.719v6.546h12.297v-20.406h-12.297v8.936h-1.719zm23.887 18.195h1.72v12.541h3.283v1.72l-5.003-.001zm-3.653 4.956h1.719v8.445h-1.719zm52.924 8.625 1.217 1.217-2.488 2.488-8.816.001v-1.72h8.102zm11.17.576h8.169l5.72 5.748v8.211l-5.72 5.749h-8.169l-5.721-5.749v-8.211zm-97.979 7.362h1.719v3.963h-1.719zm139.544 6.792h1.719v3.093l-21.571.001-1.581 1.581-1.217-1.212 2.085-2.089 20.565.001zm-77.721 2.843h23.164l10.305 9.985-.051 26.076h-1.719v-2.326h-28.49v15.046h7.027v1.72h-17.887v-1.72h7.604v-9.708h-21.061v9.708h6.455v1.72l-25.133-.001-1.913-1.913 1.216-1.216 1.414 1.41h11.794v-7.727h-.624v-1.719h.624v-24.45h-.624v-1.719l27.899-.018zm48.13 7.623 1.216 1.216-1.186 1.186v10.486l5.141-.061v-9.227h11.775v1.595h6.1v-1.595h8.218v6.606h-1.719v-4.887h-4.78v4.887h-1.719v-3.292h-6.1v3.292h-1.719v-4.887h-8.337v7.508h8.337v-.708h1.719v.708h6.1v-.708h1.719v.708h4.78v-.708h1.719v1.639h2.058v1.719h-2.058v17.233h-1.719v-16.384h-9.525v3.558l-.077.534h-1.685l-.101-.534h-2.585v14.519h2.686v-1.217h1.719v2.936h-4.405v5.036h13.973v-5.1h1.719v6.819h-32.953v-19.584h1.719v17.865h11.154v-24.832l-11.154.06v1.857h-1.719v-16.542zm-95.756 5.542 17.115.001v1.719h-.62v4.281h-1.719v-4.281h-1.921v4.281h-1.719v-4.281h-9.416v5.922h14.775v7.453h-1.719v-5.733h-1.921v5.733h-1.719v-5.733h-9.416v7.375l14.775-.001v6.997h-1.719v-5.277h-1.921v5.277h-1.719v-5.277h-9.416v7.714h16.301v1.719h-16.301l.023.63 1.085 1.085-1.212 1.217-1.616-1.617zm114.014 17.111h1.719v8.901h-1.719zm-34.689 8.901h1.719v11.323h-8.075v-1.719h6.356zm-15.785 9.604h3.838v1.72h-3.838zm20.699 7.271h7.368l2.522 2.522h28.601l2.815 2.791.029 1.539h-21.865v4.349l21.865.095-.029 1.232-2.878 2.876H663.49l-2.589 2.588h-7.232l-2.587-2.588h-28.387l-2.961-2.961-.109-1.242h21.606v-4.36l-21.497-.083v-1.445l2.793-2.791h28.646zm-51.063 2.522 2.815 2.791v1.528h-21.383v4.443h21.383v1.244l-2.878 2.876h-30.158l-2.961-2.961v-7.13l2.79-2.791zm-25.336 20.409h50.022v1.719h-7.027v4.998h1.624v1.719h-1.624v8.647h2.51v-5.458h-1.371v-1.719h4.341v1.719h-1.251v5.458h2.583v-8.647h-3.15v-1.719h4.869v3.189h8.871v2.342h6.98v1.719h-6.98v1.531h-1.719v-3.873h-7.152v5.458h14.256v-2.135h1.719v2.135h4.271v-15.364h-7.016v-1.719h8.735v40.491l-9.716 9.887h-8.075v-1.719h7.357l8.715-8.876v-18.608h-6.836c0 15.684-.026-8.563-.026 14.548h-3.463v-1.719h2.399v-8.084h-2.794v4.59h1.208v1.719h-4.135v-1.719h1.208v-4.59h-2.923v8.084h3.228v1.719h-5.602v-5.69h-2.553v-1.719h2.553l-.013-7.139h-13.4l-.018 7.139h7.87v1.719h-9.589v-3.615h-7.396v-5.243h-14.295v3.524h.83v1.719h-.83v9.213h9.258v1.719h-14.621v-1.719h1.121V449.32h-19.611v6.344h9.958v-4.578h1.72v4.578h2.548v-4.578h1.719v6.297h-15.945v7.444h9.958v-5.192h1.72v5.192h2.548v-5.192h1.719v6.911h-15.945v5.598h9.958v-3.672h1.72v3.672h2.548v-3.672h1.719v5.391h-17.664v-28.454l1.521-1.522 1.217 1.217-1.019 1.019v1.478h7.822v-.692h1.719v.692h11.674v-2.94h-11.674l-.234.4h-1.485v-2.119h13.393v-4.71h-13.844l-1.41 1.409-1.216-1.216zm55.7 0h3.283v1.719h-3.283zm30.27 0h33.631v6.979h-1.719v-5.26h-14.395v5.948h3.568v2.411h-1.719v-.691h-1.849v14.814h1.849v-.877h1.719v3.873h10.827v-16.431h1.719v16.431h1.559v1.719h-3.696v.773h-1.719v-.773h-2.927v2.321h-1.719v-2.321h-16.258v8.342h8.689v-4.99h1.719v4.99h5.85v-2.751h1.719v2.751h2.927v-4.99h1.719v6.709h-24.342v-10.061h-5.433v10.831l2.235 2.239-1.216 1.212-2.738-2.734v-15.593h1.719v2.326h5.433v-9.206h2.234v-3.615h1.719v3.615h1.548v1.719h-3.782v7.487h5.033v-11.961h-1.251v-1.719h1.251v-11.798h-12.185v18.85h-1.719zm19.366 12.141h1.719v8.944h-1.719zm-85.077 12.558h8.604v1.719h-8.604zm11.699 10.932h9.143v13.028h8.921v1.719h-10.64v-13.028h-7.424zm43.904 12.869h8.152l5.706 5.741v8.202l-5.706 5.744h-8.152l-5.707-5.744v-8.202zm20.186-.15 1.469 1.466h20.978v3.288h-1.719v-1.569H674.12l-1.969-1.969zm-86.266 2.54v11.541h14.234v2.488h-14.234v14.896h4.933v2.115h-1.719v-.396h-3.214v3.913h3.214v-2.035h1.719v2.035h7.672v-9.449h1.719v23.568h-10.251v-1.72h8.532v-9.358h-12.605v11.122h-3.427v-11.122h-13.013v9.358h8.037v1.72h-9.756V513.1h1.719v8.86h13.013v-20.528h-2.66v10.839h1.243v1.719h-2.962v-12.558h-8.634v5.984h-1.719l.064-20zm-31.781 5.399h1.719v4.022h-1.719zm74.944 8.139h10.126l2.295 2.295-1.217 1.213-1.791-1.788h-9.413zm-74.944 28.942h1.719v6.125h-1.719zm14.96 13.522h22.247v7.895h-22.247v-1.719h20.528v-4.457h-20.528zm35.894 3.034h9.976v1.719h-9.976z"/>
    </g>
    <g id="Ramps-2" class="road_tarmac road_small">
      <path d="M570.431 297.912h20.563" style="stroke:url(#linearGradient208)"/>
      <path d="M605.607 422.644h-21.523" style="stroke:url(#linearGradient206)"/>
      <path d="M619.625 422.562h21.606" style="stroke:url(#linearGradient204)"/>
      <path d="M695.05 422.656h-21.865" style="stroke:url(#linearGradient202)"/>
      <path d="M570.492 547.368h20.326" style="stroke:url(#linearGradient199)"/>
    </g>
  </g>
</svg>
