<svg xmlns="http://www.w3.org/2000/svg" xmlns:xlink="http://www.w3.org/1999/xlink" xml:space="preserve" id="svg235" viewBox="0 0 1127.6852 947.02582">
  <style id="style_common">
    .trees { fill:#144043 }
    .cement { fill:#c6c2c2 }
    .land { fill:#1f5054 }
    .rock { fill:#dcd5b6 }
    .water { fill:#4a6b96 }
    .wood { fill:#593700 }
    .tarmac { fill:#768089 }
    .gravel { fill:#946d3e }
    .building { fill:#1a2632 }
    .floor { fill:#70777f }
    .locked { fill:#37414c }
    .map_border { fill:none;stroke:#000;stroke-width:2 }
    .fence { fill:none;stroke:#c4e3c3;stroke-width:1 }
    .road_tarmac { fill:none;stroke:#888 }
    .road_gravel { fill:none;stroke:#946d3e }
    .road_small { stroke-width:5 }
    .road_medium { stroke-width:8 }
    .road_large { stroke-width:12 }
    .railroad { fill:none;stroke:#914833;stroke-dasharray:6;stroke-width:3 }
    .powerline { fill:none;stroke:#ffce00;stroke-width:2;stroke-miterlimit:10;stroke-dasharray:6,6 }
    .danger { fill:red;fill-opacity:.4;stroke:red;stroke-dasharray:4,2;stroke-width:2 }
    .task { fill:#000 }
    .stairs { fill:#FFD700 }
    .shadow { filter:drop-shadow(0 0 2px #000) }
  </style>
  <style id="style_interchange">
    .structure{ fill:#4b4b4b }
  </style>
  <defs id="defs1">
    <linearGradient id="rampDown_l2r">
      <stop offset="0" style="stop-color:#777777;stop-opacity:0"/>
      <stop offset="1" style="stop-color:#000000;stop-opacity:0.5"/>
    </linearGradient>
    <linearGradient id="rampDown_r2l">
      <stop offset="0" style="stop-color:#000000;stop-opacity:0.5"/>
      <stop offset="1" style="stop-color:#777777;stop-opacity:0"/>
    </linearGradient>
    <linearGradient id="rampUp_l2r">
      <stop offset="0" style="stop-color:#ffffff;stop-opacity:0"/>
      <stop offset="1" style="stop-color:#ffffff;stop-opacity:0.5"/>
    </linearGradient>
    <linearGradient id="rampUp_r2l">
      <stop offset="0" style="stop-color:#ffffff;stop-opacity:0.5"/>
      <stop offset="1" style="stop-color:#ffffff;stop-opacity:0"/>
    </linearGradient>
    <linearGradient xlink:href="#rampDown_l2r" id="linearGradient199" x1="570.80627" x2="591.41376" y1="547.44904" y2="547.44904" gradientUnits="userSpaceOnUse"/>
    <linearGradient xlink:href="#rampDown_l2r" id="linearGradient204" x1="619.79303" x2="641.30688" y1="422.59802" y2="422.59802" gradientUnits="userSpaceOnUse"/>
    <linearGradient xlink:href="#rampDown_l2r" id="linearGradient208" x1="570.74658" x2="591.21991" y1="298.05548" y2="298.05548" gradientUnits="userSpaceOnUse"/>
    <linearGradient xlink:href="#rampDown_l2r" id="linearGradient244" x1="655.25275" x2="667.29785" y1="553.22253" y2="553.22253" gradientUnits="userSpaceOnUse"/>
    <linearGradient xlink:href="#rampDown_r2l" id="linearGradient178" x1="548.24091" x2="564.77557" y1="422.53278" y2="422.53278" gradientUnits="userSpaceOnUse"/>
    <linearGradient xlink:href="#rampDown_r2l" id="linearGradient183" x1="573.39221" x2="589.56195" y1="576.43915" y2="576.43915" gradientUnits="userSpaceOnUse"/>
    <linearGradient xlink:href="#rampDown_r2l" id="linearGradient185" x1="684.66193" x2="711.6239" y1="567.37439" y2="567.37439" gradientUnits="userSpaceOnUse"/>
    <linearGradient xlink:href="#rampDown_r2l" id="linearGradient190" x1="654.51849" x2="665.97156" y1="289.8432" y2="289.8432" gradientUnits="userSpaceOnUse"/>
    <linearGradient xlink:href="#rampDown_r2l" id="linearGradient192" x1="576.3573" x2="589.80786" y1="192.79044" y2="192.79044" gradientUnits="userSpaceOnUse"/>
    <linearGradient xlink:href="#rampDown_r2l" id="linearGradient194" x1="559.69928" x2="590.40698" y1="278.69775" y2="278.69775" gradientUnits="userSpaceOnUse"/>
    <linearGradient xlink:href="#rampDown_r2l" id="linearGradient202" x1="673.22711" x2="695.30042" y1="422.70334" y2="422.70334" gradientUnits="userSpaceOnUse"/>
    <linearGradient xlink:href="#rampDown_r2l" id="linearGradient206" x1="583.65594" x2="605.47681" y1="422.56631" y2="422.56631" gradientUnits="userSpaceOnUse"/>
    <linearGradient xlink:href="#rampDown_r2l" id="linearGradient240" x1="863.42493" x2="863.42493" y1="428.76938" y2="416.15024" gradientUnits="userSpaceOnUse"/>
    <linearGradient xlink:href="#rampDown_r2l" id="linearGradient84" x1="657.24396" x2="657.24396" y1="502.37454" y2="489.20514" gradientUnits="userSpaceOnUse"/>
    <linearGradient xlink:href="#rampUp_l2r" id="linearGradient169" x1="673.34357" x2="686.22186" y1="422.54663" y2="422.54663" gradientUnits="userSpaceOnUse"/>
    <linearGradient xlink:href="#rampUp_l2r" id="linearGradient175" x1="584.40588" x2="596.59332" y1="422.229" y2="422.229" gradientUnits="userSpaceOnUse"/>
    <linearGradient xlink:href="#rampUp_l2r" id="linearGradient229" x1="577.13721" x2="585.26691" y1="192.14255" y2="192.14255" gradientUnits="userSpaceOnUse"/>
    <linearGradient xlink:href="#rampUp_l2r" id="linearGradient231" x1="559.83801" x2="578.79132" y1="278.44525" y2="278.44525" gradientUnits="userSpaceOnUse"/>
    <linearGradient xlink:href="#rampUp_l2r" id="linearGradient233" x1="549.2016" x2="559.91034" y1="421.91113" y2="421.91113" gradientUnits="userSpaceOnUse"/>
    <linearGradient xlink:href="#rampUp_l2r" id="linearGradient235" x1="574.34711" x2="585.57257" y1="575.76074" y2="575.76074" gradientUnits="userSpaceOnUse"/>
    <linearGradient xlink:href="#rampUp_l2r" id="linearGradient237" x1="657.16199" x2="657.16199" y1="507.30679" y2="489.81567" gradientUnits="userSpaceOnUse"/>
    <linearGradient xlink:href="#rampUp_l2r" id="linearGradient239" x1="685.30359" x2="702.33179" y1="566.5777" y2="566.5777" gradientUnits="userSpaceOnUse"/>
    <linearGradient xlink:href="#rampUp_r2l" id="linearGradient173" x1="628.65796" x2="641.47662" y1="422.68347" y2="422.68347" gradientUnits="userSpaceOnUse"/>
    <linearGradient xlink:href="#rampUp_r2l" id="linearGradient180" x1="580.14874" x2="592.89923" y1="547.57135" y2="547.57135" gradientUnits="userSpaceOnUse"/>
    <linearGradient xlink:href="#rampUp_r2l" id="linearGradient187" x1="579.55914" x2="593.30176" y1="297.75217" y2="297.75217" gradientUnits="userSpaceOnUse"/>
    <linearGradient xlink:href="#rampUp_r2l" id="linearGradient219" x1="863.62848" x2="863.62848" y1="428.51624" y2="415.77615" gradientUnits="userSpaceOnUse"/>
    <linearGradient xlink:href="#rampUp_r2l" id="linearGradient221" x1="859.25153" x2="859.25153" y1="267.0549" y2="229.66937" gradientUnits="userSpaceOnUse"/>
    <linearGradient xlink:href="#rampUp_r2l" id="linearGradient223" x1="827.39575" x2="865.86719" y1="161.44046" y2="161.44046" gradientUnits="userSpaceOnUse"/>
    <linearGradient xlink:href="#rampUp_r2l" id="linearGradient225" x1="858.66565" x2="858.66565" y1="575.07996" y2="615.83398" gradientUnits="userSpaceOnUse"/>
    <linearGradient xlink:href="#rampUp_r2l" id="linearGradient227" x1="826.42755" x2="864.82324" y1="682.54443" y2="682.54443" gradientUnits="userSpaceOnUse"/>
    <linearGradient xlink:href="#rampUp_r2l" id="linearGradient242" x1="661.1485" x2="668.93115" y1="289.62399" y2="289.62399" gradientUnits="userSpaceOnUse"/>
    <linearGradient xlink:href="#rampUp_r2l" id="linearGradient246" x1="660.5708" x2="669.35779" y1="622.61993" y2="622.61993" gradientUnits="userSpaceOnUse"/>
  </defs>
  <g id="First_Floor" data-name="First Floor">
    <g id="Structure-1" class="shadow building" data-name="Structure">
      <path d="M683.825 138.53v10.948H552.357v136.724h-7.951v272.502h7.927v134.083h131.534v12.817h143.389V578.382h37.763l4.791-20.574V284.976l-4.791-19.216h-37.824V138.53Z"/>
    </g>
    <g id="Pavament-1" class="cement">
      <path d="M852.367 558.379h-54.821v134.48H685.117v11.494h140.889v-16.288h1.25v-11.787h-1.25v-99.147h26.529v1.251h11.488v-1.251l4.537-19.964V448.568h-16.193z"/>
      <path d="M685.076 149.795h112.621v136.193h54.67v109.994h16.193v-110.84l-4.508-18.132v-1.25H852.55v1.25h-26.605v-98.997h1.25v-12.048h-1.25v-16.186H685.076Z"/>
    </g>
    <g id="Floor-1" class="floor">
      <path d="M781.966 149.795v1.25h-23.109v5.976h-1.721v-5.976h-27.922v4.996h-1.721v-4.996h-10.445v.539h-1.721v-.539h-4.169v8.416h-1.721v-8.416h-27.678v7.289h-1.721v-7.289h-17.201v1.289h-1.72v-1.289H639.79v3.351h-1.72v-3.351h-13.948v6.351h-1.72v-6.351H602.87v10.666h-1.72v-10.666h-16.66v.724h-1.721v-.724H568.55v.724h-1.721v-.724h-12.503v21.63h9.875v-13.591h1.72v.828h8.969v-.828h1.721v2.548h-10.69v12.764h-11.595v2.231h21.962v4.502l1.635 3.962h11.567v1.721h-12.811l-1.924-4.838v20.313l1.942-4.352h12.793v1.721h-11.584l-1.618 3.451v3.967h-22.427v32.375h29.761v1.721h-28.531v10.4h2.485v-2.516h1.72v4.237h-4.205v2.968h6.44v-10h1.72v.809h10.815v1.721h-1.596v.658h-1.721v-.658h-7.498v13.597h7.498v-10.812h9.104v11.597h8.724v-14.382h-9.638v-1.721h9.638v-5.898h-.83v-1.721h2.551v15.455h5.184v3.527h-1.721v-1.806h-3.463v8.267h-10.445v6.764h13.908v-8.41h1.721v10.131h-8.791v3.361h-26.34v4.117h26.34v2.799h17.228v3.937h-37.584v7.907l-9.142 4.961v9.699h-1.721v-10.723l9.143-4.961v-6.883h-18.547v84.975h9.404v-.908h1.828l-.107 15.578h-1.721v-12.949h-5.326v6.238h-2.684v-1.721h.963v-4.517h-2.357v25.402h9.404v-7.885h1.721v7.885h2.22v13.891h2.827v1.72h-12.954v-1.72h8.407v-12.17h-11.625v5.629h-.022v.06h-6.732v3.36l-2.707 4.865v15l2.707 3.687v3.748h5.453l3.967-8.254h13.506v1.721h-12.401l-3.771 7.826v3.717h11.125v9.088h-1.721v-7.367h-9.404v25.724h9.404v-13.789h1.721v31.069h-1.721v-15.559h-9.404v42.113h9.404v-12.882h1.721v23.273h-1.721v-8.67h-9.404v41.338h18.547v-6.648l-9.143-5.748v-6.303h1.721v5.351l9.142 5.748v7.6h31.807v3.684l-24.336.041v7.162h16.465v1.72h-16.75v11.909h16.75v1.72h-16.465v5.354h-1.721v-.569h-9.033v7.586h-2.078v-1.72h.357v-5.866h-7.648v5.866h5.398v1.72h-5.398v1.774h1.891v1.721h-1.891v3.857h3.279v-4.719h1.721v4.719h4.127v-3.857h-1.836v-1.721h3.557v8.775h-1.721v-1.476h-9.127v7.547h9.127v-3.911h1.721v8.1h-1.721v-2.469h-9.127v7.998h9.127v-3.369h1.721v7.735h-1.721v-2.645h-9.127v6.508h9.127v-2.018h1.721v2.018h.49v1.721h-11.338v7.816h2.072v1.721h-2.072v32.841h4.476v.065h10.217v1.721h-4.09v4.222h-1.72v-4.222h-4.407v8.974h13.551v-8.974h-1.357v-1.721h3.078v12.416h-6.668v1.092h-1.721v-1.092h-6.883v.021h-4.476v4.727h11.359v-2h1.721v2h10.713v-15.395h1.721v15.395h154.017v-35.057h1.721v14.58h8.105v-14.58h1.721v14.58h7.648v-14.58h1.721v14.58h1.416v1.721h-20.611v18.756h61.361v-19.408l6.998-7.039-3.029-3.03-3.969 3.967v-2.726l6.998-7.041-3.029-3.03-3.969 3.969v-2.635l6.998-7.039-3.029-3.029-3.969 3.967v-2.822l6.998-7.04-3.029-3.029-3.969 3.967v-2.727l6.998-7.041-3.029-3.027-3.969 3.967v-2.729l6.998-7.039-3.029-3.029-3.969 3.967v-2.727l6.998-7.041-3.029-3.029-3.969 3.969v-2.729l6.998-7.039-3.029-3.029-3.969 3.967v-29.532h1.229v-9.955h-1.229v-3.863h-25.637v9.916h-1.72v-.701h-.918v-1.721h.918v-7.494h-3.447v7.494h.361v1.721h-.361v9.047h-20.735v.736h-1.723v-2.457h3.749v-.568h1.72v.568h3.76v-4.025h1.721v4.025h9.787v-7.326h-16.988v-6.039h1.72v4.318h15.268v-7.494h-9.787v4.728h-1.721v-4.728h-3.76v.56h-1.72v-.56h-11.848v3.176h-1.721v-3.176h-15.002v-1.508h-6.033v5.582h-26.08v4.037h26.08v5.477h-27.801v-15.096h-29.383v-2.33h.112v-.062h17.125v-.885h49.09v-.949h1.101v-10.954h1.721v2.797h7.098v1.721h-7.098v6.436h6.238v-2.995h-4.088v-1.72h5.809v4.715h1.789v-6.436h-.715v-1.721h.715v-7.476h7.545v-15.754h-4.172v-1.721h4.172v-14.008h-2.781v-1.72h3.285v.004h2.599v50.763h53.004v-44.955h14.213v1.721h-12.492v12.994h24.424v-6.971h1.72v8.692h-26.144v28.506h38.184v1.232h8.425v-1.232h5.243V447.318h3.574v1.27h9.752v-1.27h2.965V430.9h-6.75v-3.225h1.062v2.012h5.688v-13.892h-5.688v8.222h-1.062v-9.679h6.75v-17.106h-2.965v-1.25h-9.752v1.25h-3.574V287.238h-5.243v-1.256h-8.425v1.256h-38.016v28.646h25.982v8.547h-1.72v-6.826h-24.262v12.465h16.699v1.721h-18.42v-44.553H743.13v49.633h-1.902v-15.012h-3.777v-1.721h3.777v-15.746h-7.619v-14.443H731.4v4.41h-5.162v-1.721h3.441v-2.689h-6.48v5.65h7.644v1.721h-7.644v2.402h-1.721v-9.773h-13.006v-1.311h-34.127v.998h-1.721l-.023-2.402H643.65v-.059h-.006v-3.423h.006v-.098h2.008v-3.277h1.72v3.277h19.098v-7.533h1.721v7.533h40.004v-7.533h1.72v7.533h17.572v-5.877h1.721v5.877h27.922v-5.877h1.721v5.877h37.59v-3.277h1.273v-8.711h-1.273v-31.655l3.818 3.817 3.029-3.03-6.847-6.888v-2.729l3.818 3.819 3.029-3.03-6.847-6.89v-2.727l3.818 3.816 3.029-3.029-6.847-6.888v-2.729l3.818 3.816 3.029-3.027-6.847-6.891v-2.726l3.818 3.816 3.029-3.029-6.847-6.889v-2.822l3.818 3.816 3.029-3.029-6.847-6.889v-2.634l3.818 3.818 3.029-3.029-6.847-6.891v-2.726l3.818 3.816 3.029-3.029-6.847-6.889v-21.061h-5.702v-1.25zm-199.197 3.476h1.721v2.361h-7.879v1.202h-1.721v-1.202h-8.969v.639h-1.72v-2.359h18.568zm9.674 2.141h5.924v6.299h-1.721v-4.579h-4.203zm68.674.859h1.72v7.217h17.201v-2.342h1.721v4.063h-35.412v-4.889h-8.277v-2.924h1.72v1.203h8.278v4.889h13.049zm-71.596 3.94h1.721v16.826h-1.721zm167.615 0h1.721v2.062h-1.721zm0 4.875h1.721v8.38h12.381v87.889h-12.381v7.256h-1.721v-8.977h12.379v-84.445h-12.379zm-29.643.632h1.721v102.893h-1.721v-20.215h-35.904v-1.721h35.904v-16.078h-10.509v-1.72h10.509zm-29.537 4.452h13.051v43.818h-1.721v-12.012h-9.683v-1.721h9.683V171.89h-11.33zm-75.554.859h1.72v4.303h6.664v1.72h-6.664v1.936h-1.72zm62.006 1.648h6.148v1.723h-4.428v36.689h9.481v1.721h-9.481v25.623h-1.72V212.81h-9.522v-1.721h9.522v-31.24h-8.86v-1.72h8.86zm-46.479 2.655h6.918v2.797h23.459v1.72h-6.412v9.604h-1.721v-9.604h-15.326v9.604h-1.721v-12.401h-5.197zm-33.207 1.131h4.156v3.765h-4.156zm38.404 18.152h1.721v7.978h30.039v1.721h-30.039v24.563h6.676v1.72h-6.676v16.078h30.039v1.721h-14.705v16.869h10.273v1.721H658.46v-12.455l-3.808-6.135h-11.526zm-38.246 9.074h4.156v3.754h-4.156zm-27.308 27.18h4.199v3.824h-4.199zm44.232 17.902h1.721v7.127l8.621 7.348h14.734v3.74h-2.554v-2.094h-13.168l-9.354-8.08zm62.922 8.453h1.721v8.041h22.013v-7.478h1.721v7.478h5.699v1.721h-26.367v6.463h-1.721v-6.463h-9.951v-1.721h6.885zm-79.943.967h4.136v3.742h-4.136zm152.353 14.307h1.721v2.252h-1.721zm-134.728 9.394h5.072v5.283h-5.072zm1.72 1.721v1.842h1.631v-1.842zm-69.804 6.496h1.72v2.281h-7.82v-1.72h6.1zm154.789 3.389h1.72v1.347h5.899l.008 32.555h17.543v9.443h-1.614v15.143h-22.912V327.4h-44.752v4.84l2.117 2.117-1.14 1.076-2.422-2.422h-12.656l-2.424 2.422-1.305-1.377 1.815-1.816v-4.84h-30.899v15.117h15.762v1.721H616.37l-.021-43.717h56.275v-6.723h1.721v1.047h9.945v1.721h-1.006v.615h-1.722v-.615h-7.217v3.799h5.012v1.721h-5.035v9.787h7.705v-12.83h10.359v12.83h7.184v-9.787h-4.87v-1.721h4.87v-3.799h-6.998v.615h-1.721v-.615h-.676v-1.721h13.199v1.721h-.775v7.189h4.6v-7.189h-2.368v-1.721h4.282zm12.365 8.683h1.721v.541h7.644v1.721h-.539v6.809h-3.062v-1.723h1.341v-5.086h-5.384v5.086h1.636v1.723h-1.636v1.941h-1.721v-9.609zm-153.66 2.239h11.103v1.722h-9.383v11.49h31.036v-11.49h-8.7v-1.722h10.42v53.111h-2.051v-1.721h.331v-10.012h-13.969v10.012h10.162v1.721l-28.943.053-.006-24.614h1.72v9.194h13.514v-21.321h-13.514v7.942h-1.72v-10.559zm15.648 0h3.531v1.722h-3.531zm-27.994 10.306h1.721v11.77h-1.721zm166.006.969h1.721v4.443h11.046v1.721h-12.767zm102.217 12.389h1.72v1.986h10.194v26.838h-1.723v-25.117h-10.191zm-4.336 1.986h1.506v1.721h-1.506zm-263.887 1.125h1.721l.107 16.416h-1.721zm-8.01 8.492h2.684v7.979h-2.684v-1.721h.963v-4.537h-.963zm108.768 4.008h4.222l3.366 3.365v6.766l-2.858 2.861h-5.759l-3.28-3.281 1.215-1.217 2.777 2.777h4.334l1.85-1.851v-5.342l-2.357-2.357h-3.51zm-2.795.924 1.217 1.217-2.19 2.189-1.217-1.217zm-97.856 6.832h1.721v15.523h-1.721zm118.834 4.242h22.235v10.129h-1.721v-8.408h-19.803l-2.172 2.172-1.216-1.219zm35.344 1.52h22.912l-.015 10.123h-1.721v-2.032h-19.438v1.67h-1.72zm-94.092.361h10.953v1.721h-9.232v2.296h-1.721zm13.981 0h10.623l5.443 5.449-1.217 1.215-4.941-4.943h-9.908zm204.24 4.926h1.723v17.423h-1.723zm-218.221 1.754h1.721v7.281h31.523v-3.289l-1.884-1.887 1.217-1.217 2.388 2.391v31.744h-1.721v-8.098h-28.56v22.356h8.291v1.72h-18.684v-1.72h6.393v-22.356h-46.797v22.356h7.848v1.72h-9.569V371.07h9.569v1.721h-7.848v15.935h30.691v-15.935h-7.912v-1.721h23.334zm49.961.939 1.176 1.256-2.008 1.883v7.841h30.133v-4.244h1.721l.017 37.213-33.591-.013v-8.803h1.72v7.082h11.701v-13.141h-13.439v-2.576h14.785v-11.768h-13.047v6.573h-1.72v-18.91zm-81.379 5.877h2.518v1.721h-2.518zm125.528.859h1.72v2.914h19.438v-2.914h1.721v29.114l-2.584 2.55-1.209-1.224 2.072-2.045v-1.205h-21.176zm124.111 14.016h1.723v13.551h-16.957v7.314h-1.721v-9.035h16.955zM648.909 405.24h1.721v10.015h-7.943v-1.72h6.222zm-64.662 8.295h19.881v1.72h-19.881zm48.897 0h3.713v1.72h-3.713zm73.883 1.594 1.218 1.216-.986.987v7.086h.379v1.72h-2.1v-9.519zm3.572 0 1.49 1.49v9.029h.99v3.471h-1.72v-2.981h-1.369v-1.72h.378v-7.086l-.988-.987zm106.332 1.146h1.721v11.4h-1.721zm-99.877 7.645h10.027v7.062h15.123v1.721h-16.843v-7.063h-8.307zm-149.223 5.767h9.569v1.721h-7.848v9.078h-1.721zm16.416 0h19.084v1.721h-19.084zm25.18 0h17.754v1.721h-6.832v22.396h28.764v-8.414h1.72v19.481h-1.72v-8.446h-46.59v17.207l-10.389-.019v-1.721h7.949v-15.467h-30.531v15.467h7.848v1.721h-9.569V445.39h1.721v8.414h47.443v-22.396h-7.568zm21.731 0h6.494v1.721h-6.494zm10.865 0h8.81v9.608h-1.72v-7.887h-7.09zm76.029 2.901h1.721v7.189h-1.721zm-6.693.494h1.72v3.347h-1.72zm-48.325 1.617h21.432v1.721h-3.664v28.451h14.211v-15.307h1.723v23.789h-1.723v-6.031h-30.258v9.641l2.846 2.845-1.217 1.217-3.35-3.35v-27.742h1.721v14.938h14.326V436.42h-14.326v8.431h-1.721zm25.024 0h8.678v9.414h-1.723v-7.693h-6.955zm129.053 3.068h1.72v6.057h16.754v70.084h-10.176v2.31h-1.72v-2.31h-4.512v-1.721h14.688v-66.642h-16.754zm-91.75.774h16.843v1.72h-15.123v6.653h5.59v3.931h-1.72v-2.211h-6.799v-1.72h1.209zm-14.002 2.843h1.72v3.467h-1.72zm-1.596 5.53h9.563v1.72h-7.842v2.211h-1.721zm0 8.461h1.719v1.484h19.467v-1.484h1.72v16.873h-8.886v3.306h7.82v1.721h-7.82v7.379h7.82v1.721h-4.401v5.14h4.401v1.721h-4.401v5.275h4.401v1.721h-4.401v6.148h5.957v-.006h2.442v1.721h-1.568v9.719h-17.086v31.215h-9.708v-8.66h-4.644v8.66h-3.316v-.022h-9.121v-1.72h9.121v-2.854h-4.75v-1.721h4.75v-9.406H692.8v12.758h-11.517v-12.758H674.8v9.406h4.418v1.721h-4.976v2.854h9.894v1.72h-9.894v.881h-1.721v-5.16h-1.799v.004h-5.498v-1.721h5.346v-22.689h-54.905v-8.055h1.721v3.826h32.643v-4.625l-3.266-3.275 1.051-.965 3.244 3.506h12.045l3.949-4.15 1.049 1.029-1.049.926v1.769h5.231v3.303h-1.721v-1.582h-3.51v5.172h3.51v-1.338h1.721v1.338h37.474v-15.176h-6.502v-1.721h6.502zm-60.65 14.662h1.72v7.113l-9.992 9.814h-7.959v-1.72h7.244l8.987-8.807zm-66.737 1.855h4.489v1.721h-4.489zm27.051 0h7.959v13.352h9.795v1.72h-11.516v-13.351h-6.238zm85.586 5.797h1.723v10.277h-23.78l-3.101-3.099 1.217-1.217 2.595 2.596h21.346zm-127.182 9.219h11.225v1.721h-9.504l-.133 9.544h30.824l.133-9.544h-8.793v-1.721h10.514v10.506h.025l-.019 32.752h-1.727v-3.008h-30.824v10.812h8.713v1.721h-10.434V514.91h1.721v8.523h14.674v-21.566h-14.674v8.056h-1.721zm15.715 0h3.319v1.721h-3.319zm68.778 2.176h1.72v2.478l-1.261 1.256v6.959l-.866.869 1.621 1.623h7.106l1.129-1.127-1.992-1.988 1.701-1.693v-8.377h1.72v9.089l-.984.981 1.992 1.988-2.853 2.848h-8.53l-3.341-3.342 1.576-1.582v-6.963l1.262-1.256zm-36.659 11.22h22.452v1.721h-20.731v3.93h-1.721zm58.03 0h24.89v1.721h-24.89zm48.728 21.799h12.26v1.721h-10.539v3.656h-1.721zm-106.68 2.801h1.721v18.072h9.041v1.723h-10.762zm106.68 5.373h1.721v2.365h.644v1.721h-.644v4.947h4.086v-4.947h-1.074v-1.721h2.796v6.668h1.29v1.721h-7.098v.215h-1.721v-7.742zm-122.047 3.779h1.725l-.004 5.635h-10.514v-1.721h8.793zm-17.22 3.914h4.099v1.721h-4.099zm58.205 5.041h6.32v1.721h-6.32zm91.853 23.686h1.721v11.65h-1.721zm13.569 5.176h1.72v3.316h-1.72zm22.156 2.74h1.72v98.24h-5.886v-1.721h4.166v-38.003h-5.158v-1.721h5.158V584.98h-.918v-1.721h.918zm-35.725 6.715h1.721v50.08h21.461v1.721h-2.266v15.185h-1.721v-15.185h-17.474v15.611h-1.721zm9.82 1.213h1.721v.718h21.098v1.721h-.361v3.025h-1.721v-3.025h-11.197v19.566h11.197v-14.257h1.721V619.9h-1.721v-13.633h-11.297v19.721h11.297V622.3h1.721v5.409l-27.602-.008.021-35.485h1.721v12.276h11.221V584.98h-11.221v4.707h-1.721v-6.428h5.123zm-141.955 4.923 1.215 1.217-6.791 6.793-1.217-1.217zm-28.994 4.182h1.721v3.02h-4.596v6.103h3.637v1.721h-3.637v5.39h3.637v1.721h-3.637v5.569h3.637v1.72h-3.637v5.567h3.637v1.72h-3.637v5.205h3.637v1.721h-3.637v.899h-2.39v-1.721h.67v-37.336h4.595zm15.584 9.408 1.217 1.217-1.68 1.68v31.228h-1.72v-31.941zm171.283 30.354h2.129v1.721h-2.129zm-15.912 6.328h1.721v10.578h-1.721zm-184.588 2.082h10.489v5.49h16.545v-4.178h1.72v5.899h-8.009v25.953h-1.721v-5.437h-18.262v-22.004h1.721v6.697h6.285v-.76h1.721v4.01h.4v1.721h-2.121v-3.25h-6.285v11.865h16.541v-8.615h-5.705v-1.721h5.705v-8.459h-8.535v2.289h-1.721v-7.779h-6.285v.943h-1.721v-.943h-.762zm200.5 31.314h2.129v1.721h-2.129z"/>
    </g>
    <g id="Ramps-1" class="road_tarmac road_small" data-name="Ramps">
      <path d="M657.255 489.21003v13.15223" style="stroke:url(#linearGradient84);stroke-width:10"/>
      <path d="M593.02 297.752h-13.174" style="stroke:url(#linearGradient187)"/>
      <path d="M654.122 289.83h11.914" style="stroke:url(#linearGradient190)"/>
      <path d="M589.575 278.805h-29.398" style="stroke:url(#linearGradient194)"/>
      <path d="M574.675 192.269h15.908" style="stroke:url(#linearGradient192)"/>
      <path d="M711.712 567.025h-25.719" style="stroke:url(#linearGradient185)"/>
      <path d="M573.563 575.928h16.312" style="stroke:url(#linearGradient183)"/>
      <path d="M592.926 547.158h-13.025" style="stroke:url(#linearGradient180)"/>
      <path d="M548.483 422.437h16.322" style="stroke:url(#linearGradient178)"/>
      <path d="M583.857 422.437h12.942" style="stroke:url(#linearGradient175)"/>
      <path d="M641.809 422.354h-13.025" style="stroke:url(#linearGradient173)"/>
      <path d="M672.885 422.437h13.19" style="stroke:url(#linearGradient169)"/>
      <path d="M863.364 416.192v12.605" style="stroke:url(#linearGradient240)"/>
      <path d="M654.614 553.027h12.506" style="stroke:url(#linearGradient244)"/>
    </g>
  </g>
</svg>
